<?xml version="1.0" encoding="UTF-8"?>
<!DOCTYPE svg PUBLIC "-//W3C//DTD SVG 1.1//EN" "http://www.w3.org/Graphics/SVG/1.1/DTD/svg11.dtd">
<!-- Creator: CorelDRAW 2017 -->
<svg xmlns="http://www.w3.org/2000/svg" xml:space="preserve" width="80px" height="80px" version="1.1" style="shape-rendering:geometricPrecision; text-rendering:geometricPrecision; image-rendering:optimizeQuality; fill-rule:evenodd; clip-rule:evenodd"
viewBox="0 0 80 80"
 xmlns:xlink="http://www.w3.org/1999/xlink">
 <defs>
  <style type="text/css">
   <![CDATA[
    .fil0 {fill:white}
   ]]>
  </style>
 </defs>
 <g id="borders_x0020_off">
  <metadata id="CorelCorpID_0Corel-Layer"/>
  <path class="fil0" d="M0 0l80 0 0 80 -80 0 0 -80zm6 6l68 0 0 68 -68 0 0 -68z"/>
  <path class="fil0" d="M0 0l80 0 0 80 -80 0 0 -80zm6 6l68 0 0 68 -68 0 0 -68z"/>
  <rect class="fil0" x="38" width="4" height="80"/>
  <rect class="fil0" transform="matrix(3.53162E-14 -1.33346 1.11889 2.96332E-14 -0.000589378 41.9991)" width="3" height="71.5"/>
  <rect class="fil0" x="20" width="4" height="80"/>
  <rect class="fil0" transform="matrix(3.53162E-14 -1.33346 1.11889 2.96332E-14 -0.000589378 60.0006)" width="3" height="71.5"/>
  <rect class="fil0" x="56" width="4" height="80"/>
  <rect class="fil0" transform="matrix(3.53162E-14 -1.33346 1.11889 2.96332E-14 -0.000589378 23.9975)" width="3" height="71.5"/>
 </g>
</svg>
