<?xml version="1.0" encoding="UTF-8"?>
<!DOCTYPE svg PUBLIC "-//W3C//DTD SVG 1.1//EN" "http://www.w3.org/Graphics/SVG/1.1/DTD/svg11.dtd">
<!-- Creator: CorelDRAW 2017 -->
<svg xmlns="http://www.w3.org/2000/svg" xml:space="preserve" width="80px" height="80px" version="1.1" style="shape-rendering:geometricPrecision; text-rendering:geometricPrecision; image-rendering:optimizeQuality; fill-rule:evenodd; clip-rule:evenodd"
viewBox="0 0 80 80"
 xmlns:xlink="http://www.w3.org/1999/xlink">
 <defs>
  <style type="text/css">
   <![CDATA[
    .fil0 {fill:white}
   ]]>
  </style>
 </defs>
 <g id="brush">
  <metadata id="CorelCorpID_0Corel-Layer"/>
  <path class="fil0" d="M8.96 80c0.29,-0.02 0.55,-0.05 0.79,-0.09l4.78 -0.23c3.11,0.02 10.46,-0.86 13.62,-1.38 2.17,-0.35 5.89,-1.15 8.04,-1.96 2.61,-0.99 4.57,-1.89 6.62,-3.37 6.92,-4.99 7.19,-13.74 7.19,-22.81l-12.68 -9.51c-0.6,-0.48 -1.22,-1.01 -1.85,-1.45 -0.71,-0.5 -1.17,-0.08 -2.31,0.21 -7.12,1.81 -13.05,6.12 -15.82,13.09 -2.92,7.36 -3.53,14.62 -8.12,20.63 -1.27,1.66 -3.31,3.55 -5.07,4.62l-4.15 2.25 8.96 0zm29.32 -45.31l3.62 2.79c0.95,0.71 10.63,8.14 11.22,8.3 0.85,-1.26 0.87,-0.98 1.63,-1.96l5.05 -5.73c1.51,-1.49 5.18,-6.08 6.72,-7.66l10.93 -12.35c0.45,-0.53 2.43,-2.65 2.55,-3.08 -0.33,-0.5 -6.31,-4.97 -7.27,-5.69 -1.13,-0.85 -11.76,-9.13 -12.42,-9.31 -0.38,0.28 -2.49,3.78 -2.78,4.25l-2 3.16c-2.49,3.8 -5.18,8.36 -7.59,11.93 -0.27,0.4 -0.4,0.63 -0.66,1.06l-9 14.29z"/>
 </g>
</svg>
