<?xml version="1.0" encoding="UTF-8"?>
<!DOCTYPE svg PUBLIC "-//W3C//DTD SVG 1.1//EN" "http://www.w3.org/Graphics/SVG/1.1/DTD/svg11.dtd">
<!-- Creator: CorelDRAW 2017 -->
<svg xmlns="http://www.w3.org/2000/svg" xml:space="preserve" width="80px" height="80px" version="1.1" style="shape-rendering:geometricPrecision; text-rendering:geometricPrecision; image-rendering:optimizeQuality; fill-rule:evenodd; clip-rule:evenodd"
viewBox="0 0 80 80"
 xmlns:xlink="http://www.w3.org/1999/xlink">
 <defs>
  <style type="text/css">
   <![CDATA[
    .fil0 {fill:white}
   ]]>
  </style>
 </defs>
 <g id="cannvas_x0020_color">
  <metadata id="CorelCorpID_0Corel-Layer"/>
  <path class="fil0" d="M60.14 23.43c-0.15,0.63 -0.36,1.25 -0.63,1.84 -0.3,0.66 -0.75,1.07 -1.48,1.49 -1.24,0.72 -3.32,1.13 -4.77,1.24l-2.24 0.14c-0.75,0.02 -1.45,0.05 -2.18,0.02l-3.63 -0.16c-0.2,-0.03 -0.37,-0.02 -0.55,-0.04 -0.09,0.35 -1.67,3.66 -1.87,4.08 -0.16,0.36 -0.3,0.67 -0.46,1.02 -0.05,0.1 -0.08,0.16 -0.13,0.25l-0.71 1.54c0,0.01 -0.01,0.02 -0.01,0.03l-0.1 0.22c-0.17,0.37 -0.31,0.68 -0.48,1.05 -0.16,0.35 -0.3,0.67 -0.47,1.02l-0.35 0.74c0,0.01 0,0.02 -0.01,0.03l-2.29 4.95c-0.02,0.06 -0.03,0.08 -0.06,0.14l-0.54 1.19c-0.42,1.03 -0.94,2.02 -1.4,3.03l-0.71 1.55c-0.55,1.27 -1.15,2.52 -1.73,3.78l-2.83 6.14c-0.21,0.46 -0.84,1.68 -0.94,2.07l31.3 14.44c0.01,-0.22 1.05,-2.26 1.21,-2.67 0,-0.01 0,-0.02 0.01,-0.03l0.39 -0.89c0.08,-0.19 0.15,-0.34 0.24,-0.52l1.43 -3.05c0.03,-0.05 0.03,-0.07 0.05,-0.12l1.96 -4.27c0.27,-0.7 0.72,-1.71 1.07,-2.34 0.4,-0.74 0.76,-1.51 1.06,-2.29l0.11 -0.25c0.32,-0.68 0.61,-1.44 0.96,-2.1l0.03 -0.05c0.03,-0.04 0.04,-0.08 0.07,-0.14 0.32,-0.69 0.68,-1.38 0.96,-2.09 0.28,-0.7 0.64,-1.51 1.04,-2.26 0.05,-0.1 0.08,-0.16 0.12,-0.25l0.95 -2.07c0.48,-1.13 1.04,-2.23 1.56,-3.35 0.21,-0.46 0.45,-0.91 0.63,-1.38 0,-0.01 0.01,-0.02 0.01,-0.03l0.07 -0.17c0.28,-0.68 0.61,-1.34 0.93,-2.01l0.24 -0.53c-0.22,-0.32 -1.36,-1.46 -1.73,-1.9 -0.28,-0.34 -0.59,-0.64 -0.85,-0.99 -0.24,-0.34 -0.54,-0.63 -0.79,-0.97l-0.39 -0.52c-0.08,-0.11 -0.14,-0.17 -0.21,-0.27 -0.91,-1.27 -1.68,-2.24 -2.49,-3.66 -0.55,-0.96 -1.6,-2.93 -1.33,-4.19 0.24,-1.13 1.61,-3.23 2.34,-4.13 0.79,-0.97 1.59,-1.9 2.5,-2.76l2.62 -2.47c0.07,-0.08 0.05,-0.05 0.12,-0.11 0.1,-0.08 0.03,-0.02 0.1,-0.09l0.77 -0.81c0.62,-0.72 1.41,-1.87 1.71,-2.79 0.23,-0.7 0.57,-1.38 0.74,-2.1l0.14 -0.44c0.22,-0.77 0.36,-1.57 0.52,-2.36 0.01,-0.11 0.02,-0.17 0.04,-0.28 0.21,-1.18 0.25,-2.36 0.21,-3.55l-0.06 -0.93c-0.01,-0.17 -0.03,-0.09 -0.04,-0.29l-0.54 -2.53c-0.04,-0.3 -0.72,-1.59 -0.95,-1.95l-0.23 -0.32c-0.01,-0.01 -0.03,-0.05 -0.04,-0.06 -0.21,-0.24 -0.46,-0.55 -0.72,-0.75 -0.24,-0.18 -0.46,-0.38 -0.73,-0.52 -0.53,-0.28 -1.07,-0.52 -1.7,-0.59 -2.04,-0.23 -3.83,0.55 -5.5,1.57 -0.4,0.24 -0.77,0.51 -1.12,0.78 -0.35,0.29 -0.69,0.56 -1,0.84 -0.85,0.78 -1.54,1.55 -2.26,2.41 -0.62,0.73 -1.15,1.53 -1.65,2.34l-0.45 0.76c-0.2,0.34 -0.35,0.71 -0.51,1.07 -0.03,0.06 -0.04,0.08 -0.07,0.14l-0.04 0.08c-0.01,0 -0.01,0.02 -0.02,0.02 0,0.01 0,0.02 -0.01,0.03l-0.75 2.26 -0.22 1.2c-0.37,2.21 -0.38,4.57 -0.72,6.82 -0.12,0.73 -0.26,2.38 -0.52,3.07zm-60.14 -13.43l56.06 0 -0.28 0.85 -0.3 1.62c-0.41,2.38 -0.4,4.69 -0.75,6.97 -0.11,0.71 -0.15,1.53 -0.31,2.21l-0.02 0.01 -0.03 0.12c-0.52,0.12 -1.13,0.21 -1.49,0.23l-2.24 0.14c-0.41,0.01 -1.02,0.04 -1.63,0.02l-3.41 -0.16c-0.14,-0.01 -0.29,-0.02 -0.43,-0.03l-4.34 -0.17 -1.91 4.36c-0.47,1.12 -1.07,2.26 -1.58,3.37 -0.15,0.34 -0.31,0.67 -0.46,1.01 0.02,-0.05 0,0 -0.03,0.04l-0.05 0.11 -0.57 1.24 -0.01 0.01 -0.32 0.7c-0.15,0.33 -0.29,0.66 -0.45,0.99 -0.14,0.32 -0.29,0.65 -0.44,0.97l-0.33 0.7c-0.01,0.01 -0.01,0.02 -0.02,0.03l0 0c-0.02,0.04 -0.03,0.08 -0.05,0.12l-2.28 4.92c-0.02,0.04 -0.03,0.08 -0.05,0.12l-0.57 1.25 -0.09 0.22c-0.38,0.94 -0.87,1.85 -1.29,2.78l-0.77 1.67c-0.53,1.23 -1.11,2.43 -1.67,3.65l-2.83 6.14c-1.17,2.55 -2.19,4.85 -3.5,7.36l35.4 16.43 -56.96 0 0 -70zm70 59.69l0 10.31 -4.75 0 1.56 -3.4c0.28,-0.6 0.59,-1.19 0.84,-1.81l0.33 -0.76c-0.01,0.02 0.03,-0.08 0.07,-0.17l0.04 -0.07 1.49 -3.17 0.09 -0.19c0.01,-0.03 0.03,-0.07 0.04,-0.1l0.29 -0.64zm-8.32 -16.09c0.31,-0.11 0.67,-0.18 0.94,-0.17 0.68,0.04 1.34,0.64 1.57,1.26l0.17 0.53c0.02,0.06 0.01,0.03 0.03,0.11 0.03,0.14 0.04,0.17 0.05,0.27 0,0.11 -0.01,0 0,0.1 0.15,1.12 -0.39,2.21 -0.84,3.19 -0.43,0.93 -1.13,2.61 -1.64,3.49 -0.36,0.63 -2.21,4.9 -2.62,5.71l-0.24 0.42c-0.1,0.24 -0.29,0.7 -0.42,0.88l-0.19 -0.08c-0.01,-0.01 -0.02,-0.01 -0.03,-0.01l-2.09 -0.98c0,0 -0.08,-0.03 -0.09,-0.03l-0.85 -0.39c-0.01,0 -0.02,-0.01 -0.03,-0.01 -0.01,-0.01 -0.02,-0.01 -0.03,-0.02 0,0 -0.02,0 -0.02,-0.01l-3.75 -1.73c-0.08,-0.04 -0.13,-0.06 -0.19,-0.09 -0.12,-0.06 -0.23,-0.1 -0.36,-0.17l-0.44 -0.19c-0.81,-0.31 -2.75,-1.26 -3.59,-1.64l-10.39 -4.8c0,0 -0.07,-0.03 -0.08,-0.04 -0.39,-0.15 -0.82,-0.43 -1.22,-0.53 0.09,-0.39 0.53,-1.2 0.72,-1.61 0.13,-0.28 0.24,-0.51 0.37,-0.8l0.35 -0.84c0.49,-1.27 1.67,-3.45 2.22,-4.85l0.12 -0.28c0.26,-0.64 0.61,-1.32 1,-1.88l0.68 -0.95c1.57,-1.88 3.29,-1.5 3.53,-0.85 0.3,0.81 0.42,1.63 0.45,2.48 0.06,1.33 0.52,4 2.46,3.53 0.47,-0.11 0.91,-0.32 1.29,-0.6 0.83,-0.61 1.84,-1.51 2.79,-1.86 0.53,-0.2 0.84,-0.08 1.21,0.11 0.38,0.19 0.67,0.51 0.85,0.91 0.45,0.96 0.39,1.78 0.31,2.61 -0.02,0.23 -0.02,0.39 -0.04,0.62l-0.1 1.22c-0.07,1.07 -0.26,4.78 1.62,4.09 0.97,-0.36 1.72,-1.18 2.29,-1.89l0.81 -0.96c0.87,-1.15 2.01,-2.75 3.42,-3.27zm10.83 -9.96c-0.13,0.19 -0.55,1.19 -0.7,1.53l-0.27 0.54c-0.46,0.93 -1.04,2.26 -1.5,3.26 -0.06,0.14 -0.1,0.24 -0.16,0.39l-0.15 0.4c-0.17,0.01 -0.29,-0.08 -0.43,-0.15l-2.06 -0.98c-0.29,-0.14 -0.54,-0.22 -0.84,-0.35 -1.12,-0.52 -2.23,-1 -3.33,-1.54 -0.16,-0.08 -0.23,-0.14 -0.4,-0.22l-4.15 -1.87c-0.16,-0.08 -0.23,-0.14 -0.4,-0.22 -0.16,-0.07 -0.25,-0.12 -0.42,-0.18l-3.75 -1.71c-0.28,-0.16 -0.52,-0.3 -0.82,-0.4l-3.76 -1.71c-0.16,-0.08 -0.23,-0.14 -0.4,-0.22 -0.3,-0.13 -0.55,-0.21 -0.84,-0.35l-3.34 -1.53c-0.16,-0.08 -0.23,-0.15 -0.4,-0.22 -0.43,-0.2 -1.02,-0.39 -1.27,-0.57 0.05,-0.22 0.73,-1.6 0.9,-1.96l1.92 -4.16 26.57 12.22zm-2.84 -33.8l-0.31 -0.84c-0.06,-0.15 0.04,-0.02 -0.02,-0.23 -0.02,-0.07 -0.04,-0.12 -0.04,-0.26 -0.01,-0.22 -0.01,-0.44 0.01,-0.64 0.22,-1.76 1.93,-3.18 3.84,-2.9l0.9 0.22c0.79,0.31 1.51,1.16 1.83,2.04 0.42,1.11 0.09,2.57 -0.71,3.34 -0.64,0.61 -0.82,0.65 -1.59,0.94 -0.6,0.22 -1.51,0.16 -2.06,-0.03 -0.42,-0.14 -0.82,-0.4 -1.15,-0.69 -0.21,-0.18 -0.4,-0.46 -0.54,-0.68 -0.07,-0.11 -0.11,-0.12 -0.16,-0.27z"/>
 </g>
</svg>
