<?xml version="1.0" encoding="UTF-8"?>
<!DOCTYPE svg PUBLIC "-//W3C//DTD SVG 1.1//EN" "http://www.w3.org/Graphics/SVG/1.1/DTD/svg11.dtd">
<!-- Creator: CorelDRAW 2017 -->
<svg xmlns="http://www.w3.org/2000/svg" xml:space="preserve" width="80px" height="80px" version="1.1" style="shape-rendering:geometricPrecision; text-rendering:geometricPrecision; image-rendering:optimizeQuality; fill-rule:evenodd; clip-rule:evenodd"
viewBox="0 0 80 80"
 xmlns:xlink="http://www.w3.org/1999/xlink">
 <defs>
  <style type="text/css">
   <![CDATA[
    .fil0 {fill:white}
   ]]>
  </style>
 </defs>
 <g id="circle">
  <metadata id="CorelCorpID_0Corel-Layer"/>
  <path class="fil0" d="M40 -0.01c22.09,0 40,17.91 40,40 0,22.09 -17.91,40 -40,40 -22.09,0 -40,-17.91 -40,-40 0,-22.09 17.91,-40 40,-40zm-8 32.01l16 0 0 16 -16 0 0 -16zm4 4l8 0 0 8 -8 0 0 -8zm4 -30.01c18.78,0 34,15.22 34,34 0,18.78 -15.22,34 -34,34 -18.78,0 -34,-15.22 -34,-34 0,-18.78 15.22,-34 34,-34z"/>
 </g>
</svg>
