<?xml version="1.0" encoding="UTF-8"?>
<!DOCTYPE svg PUBLIC "-//W3C//DTD SVG 1.1//EN" "http://www.w3.org/Graphics/SVG/1.1/DTD/svg11.dtd">
<!-- Creator: CorelDRAW 2017 -->
<svg xmlns="http://www.w3.org/2000/svg" xml:space="preserve" width="80px" height="80px" version="1.1" style="shape-rendering:geometricPrecision; text-rendering:geometricPrecision; image-rendering:optimizeQuality; fill-rule:evenodd; clip-rule:evenodd"
viewBox="0 0 80 80"
 xmlns:xlink="http://www.w3.org/1999/xlink">
 <defs>
  <style type="text/css">
   <![CDATA[
    .fil0 {fill:white}
   ]]>
  </style>
 </defs>
 <g id="erase">
  <metadata id="CorelCorpID_0Corel-Layer"/>
  <path class="fil0" d="M6.25 52.5c0,-1.43 0.86,-1.88 1.84,-2.85l6.56 -6.56c0.77,-0.77 8.13,-8.27 8.79,-8.71l22.22 22.14 -15.39 15.47c-2.82,2.83 -3.15,2.08 -5.78,-0.54l-15.94 -15.94c-0.65,-0.66 -2.3,-1.92 -2.3,-3.01zm-6.25 -0.16c0,4.21 2.68,6.04 5.19,8.56l13.76 13.75c1.08,1.09 2.3,2.46 3.44,3.43 1.13,0.96 3.08,1.92 5.11,1.92 4.18,0 6.11,-2.59 8.24,-4.73l39.38 -39.37c2.08,-2.08 4.88,-4.2 4.88,-8.24 0,-2.16 -0.79,-3.83 -1.78,-5.1l-20.61 -20.64c-1.13,-0.96 -3.08,-1.92 -5.11,-1.92 -4.25,0 -6.08,2.57 -8.24,4.73l-39.38 39.37c-2.08,2.08 -4.88,4.2 -4.88,8.24z"/>
 </g>
</svg>
