<?xml version="1.0" encoding="UTF-8"?>
<!DOCTYPE svg PUBLIC "-//W3C//DTD SVG 1.1//EN" "http://www.w3.org/Graphics/SVG/1.1/DTD/svg11.dtd">
<!-- Creator: CorelDRAW 2017 -->
<svg xmlns="http://www.w3.org/2000/svg" xml:space="preserve" width="80px" height="80px" version="1.1" style="shape-rendering:geometricPrecision; text-rendering:geometricPrecision; image-rendering:optimizeQuality; fill-rule:evenodd; clip-rule:evenodd"
viewBox="0 0 80 80"
 xmlns:xlink="http://www.w3.org/1999/xlink">
 <defs>
  <style type="text/css">
   <![CDATA[
    .fil0 {fill:white}
   ]]>
  </style>
 </defs>
 <g id="eyedropper">
  <metadata id="CorelCorpID_0Corel-Layer"/>
  <path class="fil0" d="M54.31 11.46c-0.51,-0.76 -2.17,-2.24 -2.94,-3.01 -5.17,-5.2 -11.16,0.82 -8.39,5.57l0.71 0.87c7.49,7.29 14.79,14.8 22.3,22.14 2.05,1.19 4.41,0.82 6.03,-0.66 2.11,-1.92 2.11,-5.19 -0.38,-7.65 -0.78,-0.78 -2.57,-2.4 -3.09,-3.17 0.95,-0.64 9.04,-8.87 9.77,-9.95 2.64,-3.85 2.12,-9.4 -1.19,-12.71 -0.36,-0.36 -0.79,-0.68 -1.2,-1 -3.06,-2.43 -8.17,-2.49 -11.51,-0.2 -2.2,1.51 -8.77,8.88 -10.11,9.77zm-54.31 63.55l5.05 4.97 15.87 -8.15c1.15,-0.58 2.85,-1.41 3.69,-2.26 3.58,-3.64 32.69,-32.47 33.3,-33.38l-14.13 -14.05c-0.82,0.54 -29.7,29.65 -33.18,33.11 -1.05,1.05 -1.59,2.22 -2.36,3.74l-8.24 16.02z"/>
 </g>
</svg>
