<?xml version="1.0" encoding="UTF-8"?>
<!DOCTYPE svg PUBLIC "-//W3C//DTD SVG 1.1//EN" "http://www.w3.org/Graphics/SVG/1.1/DTD/svg11.dtd">
<!-- Creator: CorelDRAW 2017 -->
<svg xmlns="http://www.w3.org/2000/svg" xml:space="preserve" width="80px" height="80px" version="1.1" style="shape-rendering:geometricPrecision; text-rendering:geometricPrecision; image-rendering:optimizeQuality; fill-rule:evenodd; clip-rule:evenodd"
viewBox="0 0 80 80"
 xmlns:xlink="http://www.w3.org/1999/xlink">
 <defs>
  <style type="text/css">
   <![CDATA[
    .fil0 {fill:white}
   ]]>
  </style>
 </defs>
 <g id="fill">
  <metadata id="CorelCorpID_0Corel-Layer"/>
  <path class="fil0" d="M80 47.51c0,1.73 -6.06,7.09 -7.5,8.54 -2.77,2.76 -5.37,5.36 -8.14,8.13 -2.77,2.77 -5.37,5.37 -8.14,8.14 -8.28,8.28 -7.76,9.31 -11.34,5.73l-7.56 -7.57c-8.88,-8.87 -19.13,-18.81 -27.72,-27.74 -1.37,-1.41 -1.28,-0.31 -4.09,-0.96 -0.5,-2.09 0.55,-2.27 3.73,-5.45l28.07 -28.07c1.01,-1.03 1.17,-1.47 2.81,-1.09l0.02 17.9c-0.03,1.55 -0.12,0.89 -0.78,1.97 -3.12,5.15 0.18,11.99 6.95,11.99 6.04,0 9.56,-7.35 6.32,-12.05 -0.34,-0.48 -0.54,-0.48 -0.73,-1.11 -0.25,-0.84 -0.09,-5.74 -0.09,-7.01l5.9 5.79c0.66,0.66 1.17,1.52 2.12,1.77 0,-4.73 -0.01,-9.47 0,-14.21 0.02,-3.4 -0.3,-6.06 -3.13,-7.64 -4.08,-2.28 -8.78,0.67 -8.78,5.35l0 17.42c0,0.43 4,3.77 0.75,6.71 -2.31,2.1 -6.48,1.01 -6.48,-3.04 0,-1.36 0.78,-2.7 1.83,-2.98 0,-3.31 -0.27,-17.93 0.33,-20.53 2.38,-10.41 17.58,-9.79 19.1,0.64 0.32,2.21 0.08,16.66 0.04,20.82 -0.02,2.09 0.17,1.64 2.82,4.28 1,1.01 13.69,13.08 13.69,14.27zm-68.67 16.92c0,5.84 -6.05,8.36 -9.56,4.79 -3.21,-3.26 -1.43,-7.5 0.48,-10.98 0.49,-0.9 0.93,-1.76 1.46,-2.63 1.02,-1.67 1,-2.17 2.16,-2.17 0.99,0 5.46,9.01 5.46,10.99z"/>
 </g>
</svg>
