<?xml version="1.0" encoding="UTF-8"?>
<!DOCTYPE svg PUBLIC "-//W3C//DTD SVG 1.1//EN" "http://www.w3.org/Graphics/SVG/1.1/DTD/svg11.dtd">
<!-- Creator: CorelDRAW 2017 -->
<svg xmlns="http://www.w3.org/2000/svg" xml:space="preserve" width="80px" height="80px" version="1.1" style="shape-rendering:geometricPrecision; text-rendering:geometricPrecision; image-rendering:optimizeQuality; fill-rule:evenodd; clip-rule:evenodd"
viewBox="0 0 80 80"
 xmlns:xlink="http://www.w3.org/1999/xlink">
 <defs>
  <style type="text/css">
   <![CDATA[
    .fil0 {fill:white}
   ]]>
  </style>
 </defs>
 <g id="grid_x0020_draw_x0020_2">
  <metadata id="CorelCorpID_0Corel-Layer"/>
  <path class="fil0" d="M0 0c3.5,0 7,0 10.5,0 3.5,0 7,0 10.5,0 1.99,0 3.99,0 6,0 3.49,0 6.99,0 10.49,0 3.5,0 7.01,0 10.51,0 0,3.5 0,7 0,10.5 0,3.5 0,7 0,10.5 0,2 0,4 0,6 0,3.5 0,7 0,10.5 0,3.5 0,7 0,10.5 -3.5,0 -7.01,0 -10.51,0 -3.5,0 -7,0 -10.49,0 -2.01,0 -4.01,0 -6,0 -3.5,0 -7,0 -10.5,0 -3.5,0 -7,0 -10.5,0 0,-3.5 0,-7 0,-10.5 0,-3.5 0,-7 0,-10.5 0,-2 0,-4 0,-6 0,-3.5 0,-7 0,-10.5 0,-3.5 0,-7 0,-10.5zm7.2 21c2.29,0 4.59,0 6.89,0 2.3,0 4.6,0 6.91,0 0,-2.3 0,-4.6 0,-6.9 0,-2.3 0,-4.6 0,-6.9 -2.31,0 -4.61,0 -6.91,0 -2.3,0 -4.6,0 -6.89,0 0,2.3 0,4.6 0,6.9 0,2.3 0,4.6 0,6.9zm19.8 0c2.29,0 4.59,0 6.89,0 2.3,0 4.61,0 6.91,0 0,-2.3 0,-4.6 0,-6.9 0,-2.3 0,-4.6 0,-6.9 -2.3,0 -4.61,0 -6.91,0 -2.3,0 -4.6,0 -6.89,0 0,2.3 0,4.6 0,6.9 0,2.3 0,4.6 0,6.9zm13.8 6c-2.3,0 -4.61,0 -6.91,0 -2.3,0 -4.6,0 -6.89,0 0,2.3 0,4.61 0,6.91 0,2.3 0,4.6 0,6.9 2.29,0 4.59,0 6.89,0 2.3,0 4.61,0 6.91,0 0,-2.3 0,-4.6 0,-6.9 0,-2.3 0,-4.61 0,-6.91zm-19.8 0c-2.31,0 -4.61,0 -6.91,0 -2.3,0 -4.6,0 -6.89,0 0,2.3 0,4.61 0,6.91 0,2.3 0,4.6 0,6.9 2.29,0 4.59,0 6.89,0 2.3,0 4.6,0 6.91,0 0,-2.3 0,-4.6 0,-6.9 0,-2.3 0,-4.61 0,-6.91z"/>
  <polygon class="fil0" points="31.81,63.86 37.6,58.07 47.24,67.71 74.21,36.16 80,41.96 47.95,80 42.86,74.92 "/>
 </g>
</svg>
