<?xml version="1.0" encoding="UTF-8"?>
<!DOCTYPE svg PUBLIC "-//W3C//DTD SVG 1.1//EN" "http://www.w3.org/Graphics/SVG/1.1/DTD/svg11.dtd">
<!-- Creator: CorelDRAW 2017 -->
<svg xmlns="http://www.w3.org/2000/svg" xml:space="preserve" width="80px" height="80px" version="1.1" style="shape-rendering:geometricPrecision; text-rendering:geometricPrecision; image-rendering:optimizeQuality; fill-rule:evenodd; clip-rule:evenodd"
viewBox="0 0 80 80"
 xmlns:xlink="http://www.w3.org/1999/xlink">
 <defs>
  <style type="text/css">
   <![CDATA[
    .fil0 {fill:white}
    .fil1 {fill:white;fill-rule:nonzero}
   ]]>
  </style>
 </defs>
 <g id="help">
  <metadata id="CorelCorpID_0Corel-Layer"/>
  <path class="fil0" d="M40 0c22.09,0 40,17.91 40,40 0,22.09 -17.91,40 -40,40 -22.09,0 -40,-17.91 -40,-40 0,-22.09 17.91,-40 40,-40zm0 7c18.22,0 33,14.78 33,33 0,18.22 -14.78,33 -33,33 -18.22,0 -33,-14.78 -33,-33 0,-18.22 14.78,-33 33,-33z"/>
  <path class="fil1" d="M38.36 24.02c-1.64,0 -3.19,0.2 -4.64,0.61 -1.46,0.41 -3.08,1.07 -4.85,1.98l-2.87 -7.71c1.78,-1.14 3.87,-2.02 6.28,-2.63 2.42,-0.62 4.78,-0.92 7.1,-0.92 2.92,0 5.32,0.38 7.21,1.16 1.89,0.77 3.38,1.75 4.47,2.93 1.1,1.19 1.86,2.49 2.29,3.9 0.43,1.41 0.65,2.75 0.65,4.03 0,1.27 -0.19,2.44 -0.58,3.51 -0.39,1.07 -0.88,2.06 -1.47,2.97 -0.59,0.91 -1.27,1.78 -2.05,2.6 -0.77,0.82 -1.52,1.59 -2.25,2.32 -0.55,0.55 -1.12,1.13 -1.71,1.74 -0.59,0.62 -1.12,1.27 -1.6,1.95 -0.48,0.68 -0.88,1.4 -1.2,2.15 -0.32,0.75 -0.48,1.51 -0.48,2.29 0,0.18 0,0.45 0,0.82 0,0.36 0.03,0.68 0.07,0.95l-9.01 0c-0.09,-0.45 -0.15,-0.96 -0.17,-1.53 -0.03,-0.57 -0.04,-1.06 -0.04,-1.47 0,-1.28 0.16,-2.43 0.48,-3.45 0.32,-1.02 0.74,-1.98 1.26,-2.87 0.53,-0.89 1.13,-1.72 1.81,-2.49 0.69,-0.78 1.39,-1.53 2.12,-2.25 1.05,-1.05 2,-2.09 2.87,-3.11 0.86,-1.03 1.3,-2.2 1.3,-3.52 0,-1.09 -0.42,-2.03 -1.27,-2.8 -0.84,-0.77 -2.08,-1.16 -3.72,-1.16zm6.35 34.35c0,2.01 -0.65,3.55 -1.94,4.65 -1.3,1.09 -2.77,1.64 -4.41,1.64 -1.64,0 -3.11,-0.55 -4.4,-1.64 -1.3,-1.1 -1.95,-2.64 -1.95,-4.65 0,-2 0.65,-3.55 1.95,-4.64 1.29,-1.09 2.76,-1.64 4.4,-1.64 1.64,0 3.11,0.55 4.41,1.64 1.29,1.09 1.94,2.64 1.94,4.64z"/>
 </g>
</svg>
