<?xml version="1.0" encoding="UTF-8"?>
<!DOCTYPE svg PUBLIC "-//W3C//DTD SVG 1.1//EN" "http://www.w3.org/Graphics/SVG/1.1/DTD/svg11.dtd">
<!-- Creator: CorelDRAW 2017 -->
<svg xmlns="http://www.w3.org/2000/svg" xml:space="preserve" width="80px" height="80px" version="1.1" style="shape-rendering:geometricPrecision; text-rendering:geometricPrecision; image-rendering:optimizeQuality; fill-rule:evenodd; clip-rule:evenodd"
viewBox="0 0 80 80"
 xmlns:xlink="http://www.w3.org/1999/xlink">
 <defs>
  <style type="text/css">
   <![CDATA[
    .fil0 {fill:white}
   ]]>
  </style>
 </defs>
 <g id="new">
  <metadata id="CorelCorpID_0Corel-Layer"/>
  <path class="fil0" d="M80 6l0 68c0,3.3 -2.7,6 -6,6l-68 0c-3.3,0 -6,-2.7 -6,-6l0 -50 24 -24 50 0c3.3,0 6,2.7 6,6zm-53.93 -1l-21.07 21.07 0 47.93c0,0.54 0.46,1 1,1l68 0c0.54,0 1,-0.46 1,-1l0 -68c0,-0.54 -0.46,-1 -1,-1l-47.93 0z"/>
  <path class="fil0" d="M24 0l0 18c0,3.3 -2.7,6 -6,6l-18 0 24 -24z"/>
 </g>
</svg>
