<?xml version="1.0" encoding="UTF-8"?>
<!DOCTYPE svg PUBLIC "-//W3C//DTD SVG 1.1//EN" "http://www.w3.org/Graphics/SVG/1.1/DTD/svg11.dtd">
<!-- Creator: CorelDRAW 2017 -->
<svg xmlns="http://www.w3.org/2000/svg" xml:space="preserve" width="80px" height="80px" version="1.1" style="shape-rendering:geometricPrecision; text-rendering:geometricPrecision; image-rendering:optimizeQuality; fill-rule:evenodd; clip-rule:evenodd"
viewBox="0 0 80 80"
 xmlns:xlink="http://www.w3.org/1999/xlink">
 <defs>
  <style type="text/css">
   <![CDATA[
    .fil0 {fill:white}
   ]]>
  </style>
 </defs>
 <g id="print">
  <metadata id="CorelCorpID_0Corel-Layer"/>
  <path class="fil0" d="M24.6 67.68c0.19,0.01 0.12,0.02 0.26,0.02l21.02 0c0.14,0 0.28,0.04 0.28,-0.18l0 -5.9c0,-0.12 -0.03,-0.16 -0.15,-0.16l-21.41 0 0 6.22zm-6.22 3.03l0 -24.55 42.98 0 0 24.6c0,0.87 -0.36,1.61 -0.94,2.19 -0.43,0.42 -1.23,0.79 -1.73,0.79l-37.53 0c-0.26,0 -0.55,-0.08 -0.77,-0.16 -0.01,-0.01 -0.02,-0.01 -0.04,-0.02 -0.37,-0.14 -0.68,-0.27 -0.97,-0.56l-0.19 -0.18c-0.49,-0.51 -0.81,-1.37 -0.81,-2.11zm-18.38 -18.89l0 -16.15c0.01,-1.72 0.03,-2.89 0.05,-3.02l0.16 -0.86c0.01,-0.09 0.01,-0.11 0.02,-0.16l0.03 -0.12c0.02,-0.08 -0.01,0.03 0.03,-0.1l0.17 -0.55c0.07,-0.2 0.13,-0.41 0.21,-0.61 0.34,-0.78 0.77,-1.5 1.28,-2.16 0.54,-0.71 1.26,-1.41 2.02,-1.89 2.96,-1.89 4.65,-1.6 8.2,-1.6l0 -15.25c0,-0.74 0.09,-1.46 0.23,-2.09 0.13,-0.6 0.37,-1.16 0.55,-1.72 0.05,-0.15 -0.02,0 0.07,-0.17 0.05,-0.1 0.06,-0.1 0.1,-0.2 0.39,-0.86 0.98,-1.68 1.63,-2.33 0.58,-0.58 1.21,-1.16 1.94,-1.56 0.13,-0.07 0.22,-0.13 0.36,-0.2 1.23,-0.67 2.61,-1.08 4.05,-1.08l37.54 0c0.5,0 0.98,0.07 1.39,0.15l1.15 0.29c0.13,0.04 0.2,0.04 0.32,0.09 0.61,0.22 1.24,0.53 1.78,0.89 0.64,0.41 1.16,0.86 1.69,1.39 1.3,1.3 2.32,3.24 2.53,5.09 0.11,0.93 0.1,1.89 0.1,2.82l0 10.78c0,0.45 -0.07,2.86 0.03,3.1 3.95,0 5.88,-0.25 8.85,1.98 2.21,1.65 3.52,4.5 3.52,7.26l0 18.43c0,0.86 -0.13,1.72 -0.32,2.41 -0.18,0.68 -0.46,1.31 -0.77,1.94l-0.52 0.87c-0.28,0.38 -0.56,0.77 -0.89,1.11l-1.47 1.26c-0.12,0.07 -0.1,0.07 -0.21,0.14l-1.04 0.6c-2.36,1.14 -4.39,0.92 -7.15,0.92 -0.1,0.22 -0.03,4.33 -0.03,4.68 0,1.63 0.05,3.24 -0.01,4.87 -0.04,1.14 -0.28,2.38 -0.8,3.42 -0.31,0.61 -0.67,1.34 -1.13,1.85l-0.79 0.9c-0.51,0.5 -1.07,0.93 -1.65,1.33 -0.58,0.4 -1.26,0.71 -1.94,0.94 -0.96,0.32 -1.83,0.49 -2.95,0.49l-36.87 0c-3.5,0 -5.97,-1.74 -7.68,-4.08l-0.45 -0.73c-0.76,-1.25 -1.16,-3.16 -1.16,-4.64l0 -9.03c-2.2,0 -4.18,0.2 -6.24,-0.59 -1,-0.38 -1.84,-0.89 -2.62,-1.55 -0.01,0 -0.02,-0.01 -0.02,-0.02l-0.31 -0.27c-0.36,-0.29 -0.75,-0.69 -1.03,-1.07 -0.46,-0.61 -0.94,-1.35 -1.25,-2.13 -0.05,-0.12 -0.09,-0.22 -0.14,-0.33l-0.08 -0.22c-0.17,-0.4 -0.37,-1.45 -0.45,-2.1 -0.01,-0.1 -0.02,-0.62 -0.03,-1.42zm66.14 -21.06c0.24,0 0.75,0.08 0.99,0.13 0.31,0.07 0.59,0.18 0.85,0.28 0.36,0.15 1.18,0.7 1.38,0.94l0.93 1.37c0.47,1.17 0.55,2.13 0.15,3.33 -0.56,1.67 -2.08,2.95 -3.79,3.09 -0.56,0.04 -1.02,0.06 -1.56,-0.09 -1.75,-0.47 -3.02,-1.62 -3.44,-3.43 -0.25,-1.08 -0.07,-2.05 0.29,-2.89l0.22 -0.4c0.22,-0.37 0.13,-0.27 0.44,-0.63l0.45 -0.48c0.01,0 0.02,-0.01 0.03,-0.02l0.41 -0.36c0.66,-0.5 1.81,-0.84 2.65,-0.84zm-47.76 -21.57c0,-0.46 0.1,-0.81 0.24,-1.15 0.16,-0.41 0.4,-0.72 0.69,-1 0.01,-0.01 0.04,-0.04 0.06,-0.05 0.43,-0.4 1.12,-0.78 1.73,-0.78l37.54 0c0.68,0 1.51,0.48 1.94,0.94 0.44,0.48 0.78,1.23 0.78,2.14l0 15.31 -42.98 0 0 -15.41zm6.22 49.3l30.75 0 0 -6.27 -30.75 0 0 6.27z"/>
 </g>
</svg>
