<?xml version="1.0" encoding="UTF-8"?>
<!DOCTYPE svg PUBLIC "-//W3C//DTD SVG 1.1//EN" "http://www.w3.org/Graphics/SVG/1.1/DTD/svg11.dtd">
<!-- Creator: CorelDRAW 2017 -->
<svg xmlns="http://www.w3.org/2000/svg" xml:space="preserve" width="80px" height="80px" version="1.1" style="shape-rendering:geometricPrecision; text-rendering:geometricPrecision; image-rendering:optimizeQuality; fill-rule:evenodd; clip-rule:evenodd"
viewBox="0 0 80 80"
 xmlns:xlink="http://www.w3.org/1999/xlink">
 <defs>
  <style type="text/css">
   <![CDATA[
    .fil0 {fill:white}
   ]]>
  </style>
 </defs>
 <g id="redo">
  <metadata id="CorelCorpID_0Corel-Layer"/>
  <path class="fil0" d="M48.21 13.19l-5.2 1.04c-11.71,2.68 -21.02,8.62 -28.83,19.94 -1.96,2.84 -4.43,7.27 -5.88,10.52 -0.28,0.64 -0.51,1.14 -0.76,1.79 -3.52,9.04 -5.1,14.34 -6.79,24.82 -0.08,0.48 -0.04,0.49 -0.1,0.91 -0.28,2.4 -1.22,5.56 -0.15,7.79 1.9,-1.37 2.28,-3.43 3.81,-6.31 6.33,-11.96 14.94,-19.69 26.33,-23.31 3.74,-1.19 6.95,-1.66 10.76,-1.98 1.29,-0.11 6.06,-0.33 6.88,0.1 0.48,1.9 -0.46,8.8 0.78,11.39 2.07,4.32 6.52,-1.54 8.02,-3.09l19.26 -19.73c1.59,-1.63 2.28,-2.36 2.97,-4.23 0.97,-2.65 0.14,-4.77 -0.86,-6.86 -0.47,-0.99 -2.69,-3.03 -3.43,-3.72l-10.69 -10.42c-2.42,-2.34 -4.72,-4.71 -7.09,-6.95 -1.2,-1.13 -2.3,-2.25 -3.5,-3.38 -2.57,-2.44 -5.04,-1.67 -5.51,1.81 -0.16,1.15 -0.1,2.07 -0.11,3.26 -0.01,2.25 0.01,4.37 0.09,6.61z"/>
 </g>
</svg>
