<?xml version="1.0" encoding="UTF-8"?>
<!DOCTYPE svg PUBLIC "-//W3C//DTD SVG 1.1//EN" "http://www.w3.org/Graphics/SVG/1.1/DTD/svg11.dtd">
<!-- Creator: CorelDRAW 2017 -->
<svg xmlns="http://www.w3.org/2000/svg" xml:space="preserve" width="80px" height="80px" version="1.1" style="shape-rendering:geometricPrecision; text-rendering:geometricPrecision; image-rendering:optimizeQuality; fill-rule:evenodd; clip-rule:evenodd"
viewBox="0 0 80 80"
 xmlns:xlink="http://www.w3.org/1999/xlink">
 <defs>
  <style type="text/css">
   <![CDATA[
    .fil0 {fill:white}
   ]]>
  </style>
 </defs>
 <g id="save">
  <metadata id="CorelCorpID_0Corel-Layer"/>
  <path class="fil0" d="M6.51 0.01l4.48 0 0 15.43c0,1.41 1.16,2.57 2.57,2.57l26.86 0c1.41,0 2.57,-1.16 2.57,-2.57l0 -15.43 8.02 0c0.24,0 1.93,-0.3 3.96,1.73l1.67 1.67 1.66 1.66 1.67 1.67 1.67 1.66 1.66 1.67 1.67 1.66 1.66 1.67 1.67 1.67 1.67 1.66 1.66 1.66 1.67 1.67 1.66 1.67 1.67 1.66 1.67 1.67c2.03,2.03 1.69,3.87 1.69,4.11l-0.03 44.52c0,2.91 -3.42,6.32 -6.33,6.32l-67.31 0c-2.92,0 -6.33,-3.39 -6.33,-6.33l0 -67.28c0,-2.93 3.59,-6.39 6.52,-6.39zm9.28 36l48.4 0c2.64,0 4.8,2.15 4.8,4.79l0 23.41c0,2.64 -2.16,4.8 -4.8,4.8l-48.4 0c-2.64,0 -4.8,-2.16 -4.8,-4.8l0 -23.41c0,-2.64 2.16,-4.79 4.8,-4.79zm19.6 -32l1.2 0c1.32,0 2.4,1.07 2.4,2.4l0 5.19c0,1.33 -1.08,2.41 -2.4,2.41l-1.2 0c-1.32,0 -2.4,-1.08 -2.4,-2.41l0 -5.19c0,-1.33 1.08,-2.4 2.4,-2.4zm-15.4 53l40 0c1.65,0 3,1.34 3,2.99l0 0.01c0,1.65 -1.35,3 -3,3l-41.5 0c-0.83,0 -1.5,-0.68 -1.5,-1.5l0 -1.51c0,-1.65 1.35,-2.99 3,-2.99zm0 -15l40 0c1.65,0 3,1.34 3,2.99l0 0.01c0,1.65 -1.35,3 -3,3l-40 0c-1.65,0 -3,-1.35 -3,-3l0 -0.01c0,-1.65 1.35,-2.99 3,-2.99z"/>
 </g>
</svg>
