<?xml version="1.0" encoding="UTF-8"?>
<!DOCTYPE svg PUBLIC "-//W3C//DTD SVG 1.1//EN" "http://www.w3.org/Graphics/SVG/1.1/DTD/svg11.dtd">
<!-- Creator: CorelDRAW 2017 -->
<svg xmlns="http://www.w3.org/2000/svg" xml:space="preserve" width="80px" height="80px" version="1.1" style="shape-rendering:geometricPrecision; text-rendering:geometricPrecision; image-rendering:optimizeQuality; fill-rule:evenodd; clip-rule:evenodd"
viewBox="0 0 80 80"
 xmlns:xlink="http://www.w3.org/1999/xlink">
 <defs>
  <style type="text/css">
   <![CDATA[
    .fil0 {fill:white}
   ]]>
  </style>
 </defs>
 <g id="unbrush">
  <metadata id="CorelCorpID_0Corel-Layer"/>
  <path class="fil0" d="M8.96 80c0.29,-0.02 0.55,-0.05 0.79,-0.09l4.78 -0.23c3.11,0.02 10.46,-0.86 13.62,-1.38 2.17,-0.35 5.89,-1.15 8.04,-1.96 2.61,-0.99 4.57,-1.89 6.62,-3.37 3.26,-2.35 5.04,-5.53 6.02,-9.19l-6.06 -6.06c-2.72,-2.73 -2.71,-7.15 0.03,-9.87l1.77 -1.77 -7.25 -5.43c-0.6,-0.48 -1.22,-1.01 -1.85,-1.45 -0.71,-0.5 -1.17,-0.08 -2.31,0.21 -7.12,1.81 -13.05,6.12 -15.82,13.09 -2.92,7.36 -3.53,14.62 -8.12,20.63 -1.27,1.66 -3.31,3.55 -5.07,4.62l-4.15 2.25 8.96 0zm29.32 -45.31l3.62 2.79c0.52,0.39 3.62,2.76 6.44,4.88 2.34,-1.96 5.66,-2.15 8.18,-0.55l3.28 -3.72c1.51,-1.49 5.18,-6.08 6.72,-7.66l10.93 -12.35c0.45,-0.53 2.43,-2.65 2.55,-3.08 -0.33,-0.5 -6.31,-4.97 -7.27,-5.69 -1.13,-0.85 -11.76,-9.13 -12.42,-9.31 -0.38,0.28 -2.49,3.78 -2.78,4.25l-2 3.16c-2.49,3.8 -5.18,8.36 -7.59,11.93 -0.27,0.4 -0.4,0.63 -0.66,1.06l-9 14.29z"/>
  <polygon class="fil0" points="47.72,52.8 52.8,47.72 63.86,58.77 74.92,47.72 80,52.8 68.95,63.86 80,74.92 74.92,80 63.86,68.94 52.8,80 47.72,74.92 58.77,63.86 "/>
 </g>
</svg>
