<?xml version="1.0" encoding="UTF-8"?>
<!DOCTYPE svg PUBLIC "-//W3C//DTD SVG 1.1//EN" "http://www.w3.org/Graphics/SVG/1.1/DTD/svg11.dtd">
<!-- Creator: CorelDRAW 2017 -->
<svg xmlns="http://www.w3.org/2000/svg" xml:space="preserve" width="80px" height="80px" version="1.1" style="shape-rendering:geometricPrecision; text-rendering:geometricPrecision; image-rendering:optimizeQuality; fill-rule:evenodd; clip-rule:evenodd"
viewBox="0 0 80 80"
 xmlns:xlink="http://www.w3.org/1999/xlink">
 <defs>
  <style type="text/css">
   <![CDATA[
    .fil0 {fill:white}
   ]]>
  </style>
 </defs>
 <g id="undo">
  <metadata id="CorelCorpID_0Corel-Layer"/>
  <path class="fil0" d="M31.66 13.15l5.2 1.04c11.72,2.68 21.02,8.61 28.83,19.94 1.96,2.84 4.43,7.26 5.88,10.52 0.29,0.64 0.51,1.14 0.76,1.79 3.52,9.04 5.11,14.34 6.79,24.81 0.08,0.48 0.05,0.49 0.1,0.91 0.29,2.41 1.22,5.56 0.15,7.8 -1.9,-1.37 -2.27,-3.43 -3.8,-6.32 -6.34,-11.96 -14.95,-19.69 -26.34,-23.31 -3.74,-1.18 -6.95,-1.65 -10.76,-1.97 -1.29,-0.11 -6.06,-0.33 -6.88,0.1 -0.48,1.89 0.46,8.8 -0.78,11.39 -2.07,4.32 -6.52,-1.54 -8.02,-3.09l-19.26 -19.74c-1.59,-1.62 -2.28,-2.36 -2.97,-4.23 -0.97,-2.65 -0.14,-4.76 0.86,-6.86 0.47,-0.98 2.7,-3.02 3.43,-3.71l10.69 -10.42c2.42,-2.35 4.72,-4.71 7.09,-6.95 1.2,-1.14 2.3,-2.25 3.5,-3.39 2.57,-2.44 5.04,-1.67 5.51,1.81 0.16,1.16 0.1,2.08 0.11,3.26 0.01,2.26 -0.01,4.38 -0.09,6.62z"/>
 </g>
</svg>
