<?xml version="1.0" encoding="UTF-8"?>
<!DOCTYPE svg PUBLIC "-//W3C//DTD SVG 1.1//EN" "http://www.w3.org/Graphics/SVG/1.1/DTD/svg11.dtd">
<!-- Creator: CorelDRAW 2017 -->
<svg xmlns="http://www.w3.org/2000/svg" xml:space="preserve" width="80px" height="80px" version="1.1" style="shape-rendering:geometricPrecision; text-rendering:geometricPrecision; image-rendering:optimizeQuality; fill-rule:evenodd; clip-rule:evenodd"
viewBox="0 0 80 80"
 xmlns:xlink="http://www.w3.org/1999/xlink">
 <defs>
  <style type="text/css">
   <![CDATA[
    .fil0 {fill:white}
   ]]>
  </style>
 </defs>
 <g id="unfill">
  <metadata id="CorelCorpID_0Corel-Layer"/>
  <path class="fil0" d="M0 47.51c0,1.73 6.06,7.09 7.5,8.54 2.77,2.76 5.37,5.36 8.14,8.13 2.77,2.77 5.37,5.37 8.14,8.14 8.28,8.28 7.76,9.31 11.34,5.73l7.56 -7.57c2.09,-2.08 4.24,-4.22 6.44,-6.39l-0.22 -0.23 -6.13 -6.14c-2.72,-2.73 -2.71,-7.15 0.03,-9.87l5.08 -5.08c2.74,-2.72 7.16,-2.71 9.87,0.02l6.11 6.11 0.26 0.27c2.16,-2.18 4.27,-4.33 6.28,-6.43 1.37,-1.41 1.28,-0.31 4.09,-0.96 0.5,-2.09 -0.55,-2.27 -3.73,-5.45l-28.07 -28.07c-1.01,-1.03 -1.17,-1.47 -2.81,-1.09l-0.02 17.9c0.03,1.55 0.12,0.89 0.78,1.97 3.12,5.15 -0.18,11.99 -6.95,11.99 -6.04,0 -9.56,-7.35 -6.32,-12.05 0.34,-0.48 0.54,-0.48 0.73,-1.11 0.25,-0.84 0.09,-5.74 0.09,-7.01l-5.9 5.79c-0.66,0.66 -1.17,1.52 -2.12,1.77 0,-4.73 0.01,-9.47 0,-14.21 -0.02,-3.4 0.3,-6.06 3.13,-7.64 4.08,-2.28 8.78,0.67 8.78,5.35l0 17.42c0,0.43 -4,3.77 -0.75,6.71 2.31,2.1 6.48,1.01 6.48,-3.04 0,-1.36 -0.78,-2.7 -1.83,-2.98 0,-3.31 0.27,-17.93 -0.33,-20.53 -2.38,-10.41 -17.58,-9.79 -19.1,0.64 -0.32,2.21 -0.08,16.66 -0.04,20.82 0.02,2.09 -0.17,1.64 -2.82,4.28 -1,1.01 -13.69,13.08 -13.69,14.27z"/>
  <polygon class="fil0" points="47.72,52.8 52.8,47.72 63.86,58.77 74.92,47.72 80,52.8 68.95,63.86 80,74.92 74.92,80 63.86,68.94 52.8,80 47.72,74.92 58.77,63.86 "/>
 </g>
</svg>
