<?xml version="1.0" encoding="UTF-8"?>
<!DOCTYPE svg PUBLIC "-//W3C//DTD SVG 1.1//EN" "http://www.w3.org/Graphics/SVG/1.1/DTD/svg11.dtd">
<!-- Creator: CorelDRAW 2017 -->
<svg xmlns="http://www.w3.org/2000/svg" xml:space="preserve" width="80px" height="80px" version="1.1" style="shape-rendering:geometricPrecision; text-rendering:geometricPrecision; image-rendering:optimizeQuality; fill-rule:evenodd; clip-rule:evenodd"
viewBox="0 0 80 80"
 xmlns:xlink="http://www.w3.org/1999/xlink">
 <defs>
  <style type="text/css">
   <![CDATA[
    .fil0 {fill:white}
   ]]>
  </style>
 </defs>
 <g id="wand">
  <metadata id="CorelCorpID_0Corel-Layer"/>
  <path class="fil0" d="M7.31 80l29.08 -29.08 -7.29 -7.3 -29.1 29.1 0 7.28 7.31 0zm40.03 -35.29l-0.01 0c-1.89,0 -3.43,1.55 -3.43,3.44l0 13.76c0,1.89 1.54,3.43 3.43,3.43l0.01 0c1.89,0 3.43,-1.54 3.43,-3.43l0 -13.76c0,-1.89 -1.54,-3.44 -3.43,-3.44zm-12.04 -12.04l0 0c0,-1.89 -1.55,-3.44 -3.44,-3.44l-13.76 0c-1.89,0 -3.44,1.55 -3.44,3.44l0 0c0,1.89 1.55,3.44 3.44,3.44l13.76 0c1.89,0 3.44,-1.55 3.44,-3.44zm12.03 -12.03l0 0c1.89,0 3.44,-1.55 3.44,-3.44l0 -13.76c0,-1.89 -1.55,-3.44 -3.44,-3.44 -1.89,0 -3.44,1.55 -3.44,3.44l0 13.76c0,1.89 1.55,3.44 3.44,3.44zm0 -20.64l0 0zm-8.51 24.16l0 0c1.34,-1.34 1.34,-3.52 0,-4.86l-9.73 -9.73c-1.33,-1.34 -3.52,-1.34 -4.86,0l0 0c-1.34,1.34 -1.34,3.53 0,4.86l9.73 9.73c1.34,1.34 3.52,1.34 4.86,0zm20.54 8.52l0 0c0,1.89 1.55,3.44 3.44,3.44l13.76 0c1.89,0 3.44,-1.55 3.44,-3.44l0 0c0,-1.9 -1.55,-3.44 -3.44,-3.44l-13.76 0c-1.89,0 -3.44,1.54 -3.44,3.44zm-3.52 8.5l0 0c-1.33,1.34 -1.34,3.53 0,4.87l9.73 9.73c1.34,1.33 3.53,1.33 4.87,0l0 0c1.33,-1.34 1.33,-3.53 0,-4.87l-9.73 -9.73c-1.34,-1.33 -3.53,-1.33 -4.87,0zm-0.61 -16.4l0 0c1.34,1.33 3.53,1.33 4.87,0l9.72 -9.73c1.34,-1.34 1.34,-3.53 0,-4.87l0 0c-1.33,-1.33 -3.52,-1.33 -4.86,0l-9.73 9.73c-1.34,1.34 -1.34,3.53 0,4.87zm-16.41 9.11l7.3 7.3 6.08 -6.08c2,-2.01 2,-5.29 0,-7.3l0 0c-2.01,-2 -5.29,-2 -7.3,0l-6.08 6.08zm-7.29 7.3l7.29 7.29 4.87 -4.86 -7.3 -7.3 -4.86 4.87z"/>
 </g>
</svg>
