<?xml version="1.0" standalone="no"?>
<!DOCTYPE svg PUBLIC "-//W3C//DTD SVG 20010904//EN"
 "http://www.w3.org/TR/2001/REC-SVG-20010904/DTD/svg10.dtd">
<svg version="1.0" xmlns="http://www.w3.org/2000/svg"
 width="700.000000pt" height="700.000000pt" viewBox="0 0 700.000000 700.000000"
 preserveAspectRatio="xMidYMid meet">
<metadata>
Created by potrace 1.11, written by Peter Selinger 2001-2013
</metadata>
<g transform="translate(0.000000,700.000000) scale(0.100000,-0.100000)"
fill="#000000" stroke="none">
<path d="M5258 6975 c-13 -14 -96 -140 -184 -280 -208 -333 -242 -387 -254
-405 -5 -8 -50 -78 -98 -155 -272 -431 -327 -518 -447 -705 -73 -113 -259
-407 -415 -655 -156 -247 -298 -472 -315 -500 -138 -212 -193 -309 -182 -319
16 -16 137 -108 467 -359 151 -115 289 -219 305 -232 216 -166 494 -365 509
-365 6 0 19 12 28 28 9 15 36 47 60 72 24 25 66 72 93 104 28 32 59 68 70 81
31 34 71 80 185 210 93 106 169 191 222 246 10 10 88 101 174 201 140 163 226
264 275 320 9 10 50 55 91 101 41 45 110 123 153 172 44 50 93 106 111 125 17
19 69 78 115 130 46 52 86 97 89 100 3 3 36 41 75 85 38 44 76 87 85 96 14 15
112 125 153 173 10 12 44 50 76 86 191 215 247 279 273 314 27 38 27 40 11 59
-16 18 -300 243 -367 292 -15 11 -72 54 -126 95 -54 41 -148 113 -210 160
-107 81 -444 340 -465 358 -37 30 -385 289 -452 336 l-82 57 -23 -26z"/>
<path d="M2935 3563 c-44 -13 -104 -31 -133 -39 -243 -65 -528 -212 -737 -380
-246 -197 -431 -450 -549 -748 -43 -107 -160 -450 -171 -500 -2 -12 -13 -50
-24 -86 -11 -36 -38 -128 -61 -205 -59 -201 -119 -374 -179 -520 -43 -102
-146 -295 -205 -382 -79 -118 -107 -152 -211 -258 -145 -148 -229 -208 -480
-345 -94 -50 -172 -94 -175 -97 -6 -6 923 4 995 10 28 3 129 8 225 12 233 9
409 20 480 30 14 2 61 7 105 10 44 4 87 8 95 10 8 2 44 7 80 10 36 4 76 8 90
10 101 14 150 21 217 29 188 25 365 59 573 111 162 40 313 87 385 120 17 7 50
21 75 31 133 52 351 178 468 271 273 217 456 563 522 988 6 39 13 81 15 95 2
14 7 57 11 95 3 39 8 81 10 95 4 37 16 373 18 537 2 119 -1 144 -14 155 -8 7
-108 82 -220 166 -552 413 -889 666 -926 697 -79 67 -143 105 -171 104 -16 -1
-64 -12 -108 -26z"/>
</g>
</svg>
